<svg width="159" height="63" viewBox="0 0 159 63" fill="none" xmlns="http://www.w3.org/2000/svg">
                <path fill-rule="evenodd" clip-rule="evenodd" d="M141.91 18.334C141.91 22.776 140.41 26.0567 137.411 28.1761C134.441 30.2954 130.471 31.3551 125.501 31.3551C120.531 31.3551 116.547 30.2954 113.547 28.1761C110.577 26.0567 109.092 22.747 109.092 18.2469V13.1082C109.092 10.1469 109.798 7.69362 111.21 5.74844C112.65 3.77423 114.606 2.3226 117.076 1.39356C119.546 0.46452 122.355 0 125.501 0C128.648 0 131.441 0.46452 133.882 1.39356C136.352 2.3226 138.308 3.75971 139.749 5.70489C141.19 7.65007 141.91 10.0888 141.91 13.0211V18.334ZM132.443 13.5574C132.443 11.5215 130.748 9.87106 128.657 9.87106C127.279 9.87106 126.073 10.5874 125.411 11.6582C124.749 10.5874 123.543 9.87106 122.165 9.87106C120.074 9.87106 118.378 11.5215 118.378 13.5574C118.378 14.6168 118.838 15.5712 119.574 16.2436H119.573L124.994 21.2936C125.093 21.41 125.242 21.4841 125.41 21.4841C125.564 21.4841 125.704 21.4201 125.803 21.318L131.25 16.2436H131.248C131.984 15.5713 132.443 14.6169 132.443 13.5574ZM29.4024 1.04107C29.1711 0.811906 28.8965 0.697324 28.5784 0.697324H20.5123C20.1943 0.697324 19.9196 0.811906 19.6883 1.04107C19.4571 1.27023 19.3414 1.54237 19.3414 1.85746V14.4901L9.88753 1.55669C9.45387 0.983779 8.89011 0.697324 8.19625 0.697324H1.17089C0.852872 0.697324 0.578219 0.811906 0.346931 1.04107C0.115644 1.27023 0 1.54237 0 1.85746V29.6149C0 29.93 0.115644 30.2021 0.346931 30.4313C0.578219 30.6604 0.852872 30.775 1.17089 30.775H9.23704C9.55506 30.775 9.82971 30.6604 10.061 30.4313C10.2923 30.2021 10.4079 29.93 10.4079 29.6149V17.9275L19.8618 29.8727C20.3244 30.4742 20.9026 30.775 21.5965 30.775H28.5784C28.8965 30.775 29.1711 30.6604 29.4024 30.4313C29.6337 30.2021 29.7493 29.93 29.7493 29.6149V1.85746C29.7493 1.54237 29.6337 1.27023 29.4024 1.04107ZM43.653 30.775C44.5782 30.775 45.2286 30.288 45.6045 29.3141L46.6887 26.3063H57.2701L58.3542 29.3141C58.73 30.288 59.3805 30.775 60.3057 30.775H68.5019C68.7621 30.775 68.979 30.6891 69.1524 30.5172C69.3548 30.3167 69.456 30.0875 69.456 29.8297L69.4126 29.5719L59.9588 2.11527C59.8431 1.74288 59.6263 1.41346 59.3083 1.12701C58.9902 0.840551 58.5566 0.697324 58.0073 0.697324H45.9514C45.4021 0.697324 44.9684 0.840551 44.6504 1.12701C44.3324 1.41346 44.1156 1.74288 43.9999 2.11527L34.5461 29.5719L34.5027 29.8297C34.5027 30.0875 34.5894 30.3167 34.7629 30.5172C34.9653 30.6891 35.1966 30.775 35.4568 30.775H37.313C37.189 32.5925 37.1271 34.6081 37.1271 36.822C37.1271 39.4723 37.3226 41.7119 37.7137 43.5408C38.1204 45.3542 38.6757 46.8189 39.3796 47.9348C40.0992 49.0508 40.9439 49.8567 41.9137 50.3527C42.8992 50.8487 43.9786 51.0967 45.1518 51.0967C45.9809 51.0967 46.7474 50.9572 47.4513 50.6782C48.1709 50.3992 48.8122 50.0117 49.3754 49.5158C49.9541 49.0198 50.4625 48.4386 50.9005 47.7721C51.3542 47.0901 51.7218 46.3539 52.0033 45.5635C53.0358 45.3775 53.99 44.9745 54.866 44.3545C55.3562 44.0052 55.792 43.5926 56.1734 43.1168C56.2599 43.867 56.4107 44.5896 56.6258 45.2845C56.9856 46.4314 57.5018 47.4389 58.1744 48.3068C58.8471 49.1593 59.6605 49.8412 60.6147 50.3527C61.5845 50.8487 62.6717 51.0967 63.8762 51.0967C64.7053 51.0967 65.4718 50.9572 66.1757 50.6782C66.8953 50.3992 67.5366 50.0117 68.0998 49.5158C68.6786 49.0198 69.1869 48.4386 69.6249 47.7721C70.0786 47.0901 70.4462 46.3539 70.7278 45.5635C71.7602 45.3775 72.7144 44.9745 73.5904 44.3545C74.0697 44.0129 74.4971 43.6108 74.8725 43.1482C74.8625 43.5736 74.8575 43.9989 74.8575 44.4243C74.8575 45.7882 74.9904 46.9042 75.2563 47.7721C75.5223 48.6246 75.8586 49.2988 76.2653 49.7947C76.6877 50.2907 77.1413 50.6317 77.6262 50.8177C78.1111 51.0037 78.5804 51.0967 79.0341 51.0967C79.6129 51.0967 80.1369 50.9882 80.6062 50.7712C81.0911 50.5542 81.5291 50.283 81.9202 49.9575C82.3112 49.632 82.6554 49.2678 82.9526 48.8648C83.2654 48.4618 83.5314 48.0743 83.7504 47.7024C83.985 47.3304 84.1727 46.9971 84.3135 46.7027C84.4699 46.3927 84.5873 46.1757 84.6655 46.0517C84.6655 46.8422 84.7124 47.5474 84.8063 48.1673C84.9158 48.7873 85.0878 49.3143 85.3225 49.7482C85.5571 50.1822 85.87 50.5154 86.261 50.7479C86.6678 50.9804 87.1761 51.0967 87.7862 51.0967C88.4432 51.0967 89.0376 50.8952 89.5695 50.4922C90.1013 50.0737 90.6254 49.4693 91.1416 48.6788C91.6578 47.8883 92.1975 46.9197 92.7606 45.7727C93.1172 45.0566 93.5064 44.2816 93.9283 43.4478C93.9728 44.328 94.0997 45.165 94.3093 45.9587C94.5908 46.9661 94.9975 47.8573 95.5294 48.6323C96.0769 49.3918 96.7417 49.9962 97.5238 50.4457C98.3216 50.8797 99.2289 51.0967 100.246 51.0967C101.372 51.0967 102.397 50.7634 103.32 50.097C104.258 49.4305 105.032 48.4618 105.642 47.1909V57.0483C105.642 57.8853 105.627 58.606 105.596 59.2105C105.58 59.8149 105.549 60.3264 105.502 60.7449C105.47 61.1634 105.439 61.4966 105.408 61.7446C105.392 61.9926 105.384 62.1708 105.384 62.2793C105.384 62.5273 105.455 62.7055 105.596 62.814C105.736 62.938 105.987 63 106.346 63C106.831 63 107.23 62.9458 107.543 62.8373C107.856 62.7288 108.098 62.5118 108.27 62.1863C108.458 61.8763 108.583 61.4423 108.646 60.8844C108.724 60.3264 108.763 59.6057 108.763 58.7222V50.1435C109.514 49.26 110.367 48.1208 111.321 46.7259C111.996 45.7544 112.672 44.6663 113.347 43.4617C113.342 43.7825 113.339 44.1034 113.339 44.4243C113.339 45.7882 113.472 46.9042 113.738 47.7721C114.004 48.6246 114.34 49.2988 114.747 49.7947C115.169 50.2907 115.623 50.6317 116.107 50.8177C116.592 51.0037 117.062 51.0967 117.515 51.0967C118.094 51.0967 118.618 50.9882 119.087 50.7712C119.572 50.5542 120.01 50.283 120.401 49.9575C120.792 49.632 121.137 49.2678 121.434 48.8648C121.747 48.4618 122.013 48.0743 122.232 47.7024C122.466 47.3304 122.654 46.9971 122.795 46.7027C122.951 46.3927 123.069 46.1757 123.147 46.0517C123.147 46.8422 123.194 47.5474 123.288 48.1673C123.397 48.7873 123.569 49.3143 123.804 49.7482C124.038 50.1822 124.351 50.5154 124.742 50.7479C125.149 50.9804 125.657 51.0967 126.267 51.0967C126.924 51.0967 127.519 50.8952 128.051 50.4922C128.583 50.0737 129.107 49.4693 129.623 48.6788C130.139 47.8883 130.679 46.9197 131.242 45.7727C131.376 45.5029 131.515 45.2248 131.659 44.9383C131.732 45.3885 131.836 45.8294 131.969 46.2609C132.251 47.2064 132.665 48.0433 133.213 48.7718C133.76 49.4848 134.433 50.0505 135.231 50.469C136.029 50.8874 136.936 51.0967 137.953 51.0967C138.672 51.0967 139.423 50.9262 140.205 50.5852C140.987 50.2442 141.777 49.7017 142.575 48.9578C143.388 48.2138 144.21 47.2529 145.039 46.0749C145.61 45.2787 146.181 44.3727 146.752 43.3569L146.752 43.4711C146.752 44.8505 146.838 46.0207 147.01 46.9816C147.182 47.9426 147.432 48.733 147.761 49.353C148.089 49.9575 148.488 50.3992 148.957 50.6782C149.442 50.9572 149.99 51.0967 150.6 51.0967C151.21 51.0967 151.843 50.8874 152.5 50.469C153.157 50.035 153.83 49.4228 154.518 48.6323C155.207 47.8263 155.903 46.8499 156.607 45.703C157.326 44.556 158.046 43.2619 158.765 41.8204L159 41.3322L158.038 40.6115L157.803 41.0997C157.303 42.1072 156.787 43.0604 156.255 43.9593C155.723 44.8428 155.199 45.6177 154.683 46.2842C154.166 46.9506 153.666 47.4854 153.181 47.8883C152.712 48.2758 152.281 48.4696 151.89 48.4696C151.593 48.4696 151.327 48.3688 151.093 48.1673C150.874 47.9658 150.686 47.6249 150.529 47.1444C150.389 46.6639 150.279 46.0285 150.201 45.238C150.138 44.4475 150.107 43.4633 150.107 42.2854C150.107 41.8204 150.115 41.2702 150.131 40.6348C150.146 39.9838 150.17 39.2786 150.201 38.5191C150.248 37.7442 150.295 36.9305 150.342 36.078C150.389 35.2256 150.443 34.3576 150.506 33.4742H154.917L155.152 32.056H150.6C150.662 31.0175 150.725 30.0023 150.788 29.0104C150.85 28.003 150.913 27.0808 150.975 26.2438C151.053 25.3914 151.116 24.6474 151.163 24.0119C151.226 23.361 151.272 22.865 151.304 22.524H148.91C148.723 24.1204 148.512 25.7168 148.277 27.3132L147.62 32.056H145.555L145.297 33.4742H147.432C147.229 35.1791 147.065 36.8607 146.939 38.5191C146.885 39.2417 146.842 39.9628 146.811 40.6824L146.611 41.0997C145.954 42.4017 145.313 43.5253 144.687 44.4708C144.061 45.4007 143.451 46.1602 142.857 46.7492C142.278 47.3381 141.699 47.7721 141.12 48.0511C140.557 48.3301 140.002 48.4696 139.454 48.4696C138.797 48.4696 138.203 48.3456 137.671 48.0976C137.139 47.8341 136.67 47.4699 136.263 47.0049C135.856 46.5244 135.52 45.9587 135.254 45.3077C134.988 44.6413 134.801 43.9051 134.691 43.0991C135.817 42.4172 136.889 41.7584 137.906 41.123C138.922 40.472 139.814 39.821 140.581 39.1701C141.363 38.5036 141.981 37.8294 142.434 37.1474C142.888 36.45 143.115 35.706 143.115 34.9156C143.115 34.0941 142.825 33.4122 142.247 32.8697C141.683 32.3272 140.862 32.056 139.783 32.056C138.719 32.056 137.695 32.3272 136.709 32.8697C135.724 33.4122 134.84 34.1716 134.058 35.1481C133.291 36.1245 132.681 37.3024 132.227 38.6819C131.823 39.8581 131.592 41.1497 131.537 42.5565C131.247 43.1273 130.969 43.6724 130.702 44.1918C130.217 45.1218 129.764 45.9277 129.341 46.6097C128.935 47.2916 128.551 47.8263 128.192 48.2138C127.847 48.5858 127.527 48.7718 127.229 48.7718C126.823 48.7718 126.557 48.4696 126.432 47.8651C126.322 47.2606 126.267 46.4314 126.267 45.3775C126.267 45.021 126.283 44.494 126.314 43.7966C126.361 43.0991 126.408 42.3242 126.455 41.4717C126.518 40.6038 126.58 39.7048 126.643 38.7749C126.705 37.8449 126.76 36.977 126.807 36.171C126.87 35.3495 126.917 34.6366 126.948 34.0321C126.995 33.4122 127.018 32.9937 127.018 32.7767C127.018 32.5287 126.964 32.3505 126.854 32.242C126.76 32.118 126.58 32.056 126.314 32.056C126.189 32.056 126.002 32.0792 125.751 32.1257C125.517 32.1567 125.266 32.2187 125 32.3117C124.75 32.3892 124.523 32.5055 124.32 32.6604C124.117 32.7999 123.991 32.9782 123.945 33.1952C123.898 33.4897 123.843 33.9779 123.78 34.6598C123.733 35.3418 123.679 36.1168 123.616 36.9847C123.553 37.8372 123.483 38.7439 123.405 39.7048C123.342 40.6503 123.272 41.5415 123.194 42.3784C122.646 44.3623 121.997 45.8735 121.246 46.9119C120.511 47.9503 119.784 48.4696 119.064 48.4696C118.219 48.4696 117.609 48.0588 117.234 47.2374C116.874 46.4159 116.694 45.1605 116.694 43.4711C116.694 42.8821 116.718 42.2312 116.764 41.5182C116.827 40.7897 116.897 40.0613 116.976 39.3328C117.054 38.5889 117.132 37.8604 117.21 37.1474C117.304 36.4345 117.39 35.7835 117.468 35.1946C117.547 34.6056 117.609 34.1096 117.656 33.7066C117.719 33.2882 117.75 33.0092 117.75 32.8697C117.75 32.5752 117.672 32.366 117.515 32.242C117.375 32.118 117.179 32.056 116.929 32.056C116.741 32.056 116.514 32.0715 116.248 32.1025C115.998 32.1335 115.748 32.18 115.497 32.242C115.263 32.304 115.052 32.3892 114.864 32.4977C114.676 32.6062 114.551 32.7302 114.488 32.8697C114.426 33.0247 114.332 33.4664 114.207 34.1949C114.082 34.9233 113.949 35.83 113.808 36.915C113.683 37.9999 113.573 39.2011 113.479 40.5185C113.475 40.5739 113.472 40.6293 113.468 40.6847L113.268 41.0997C112.783 42.0607 112.33 42.9054 111.907 43.6338C111.501 44.3623 111.11 45.0055 110.734 45.5635C110.374 46.1214 110.03 46.6174 109.702 47.0514C109.373 47.4699 109.06 47.8496 108.763 48.1906V38.0077C108.763 37.1707 108.771 36.45 108.787 35.8455C108.818 35.2411 108.849 34.7296 108.881 34.3111C108.912 33.8926 108.935 33.5672 108.951 33.3347C108.982 33.0867 108.998 32.9007 108.998 32.7767C108.998 32.5287 108.927 32.3505 108.787 32.242C108.646 32.118 108.396 32.056 108.036 32.056C107.613 32.056 107.261 32.1025 106.98 32.1955C106.698 32.273 106.464 32.428 106.276 32.6604C106.104 32.8774 105.971 33.1874 105.877 33.5904C105.783 33.9779 105.721 34.4816 105.689 35.1016C105.533 34.7606 105.314 34.4119 105.032 34.0554C104.751 33.6834 104.407 33.3502 104 33.0557C103.609 32.7612 103.163 32.521 102.663 32.335C102.162 32.149 101.614 32.056 101.02 32.056C100.191 32.056 99.3541 32.273 98.5093 32.7069C97.6646 33.1409 96.8981 33.7996 96.2099 34.6831C95.5372 35.5665 94.9819 36.6825 94.5439 38.0309C94.2946 38.8177 94.1189 39.6855 94.0167 40.6343L93.793 41.0997C93.2299 42.2157 92.7059 43.2464 92.2209 44.1918C91.736 45.1218 91.2824 45.9277 90.86 46.6097C90.4533 47.2916 90.0701 47.8263 89.7103 48.2138C89.3661 48.5858 89.0455 48.7718 88.7482 48.7718C88.3415 48.7718 88.0756 48.4696 87.9505 47.8651C87.841 47.2606 87.7862 46.4314 87.7862 45.3775C87.7862 45.021 87.8019 44.494 87.8331 43.7966C87.8801 43.0991 87.927 42.3242 87.9739 41.4717C88.0365 40.6038 88.0991 39.7048 88.1616 38.7749C88.2242 37.8449 88.279 36.977 88.3259 36.171C88.3885 35.3495 88.4354 34.6366 88.4667 34.0321C88.5136 33.4122 88.5371 32.9937 88.5371 32.7767C88.5371 32.5287 88.4823 32.3505 88.3728 32.242C88.279 32.118 88.0991 32.056 87.8331 32.056C87.708 32.056 87.5203 32.0792 87.27 32.1257C87.0354 32.1567 86.7851 32.2187 86.5191 32.3117C86.2689 32.3892 86.042 32.5055 85.8387 32.6604C85.6353 32.7999 85.5102 32.9782 85.4633 33.1952C85.4163 33.4897 85.3616 33.9779 85.299 34.6598C85.2521 35.3418 85.1973 36.1168 85.1348 36.9847C85.0722 37.8372 85.0018 38.7439 84.9236 39.7048C84.861 40.6503 84.7906 41.5415 84.7124 42.3784C84.1649 44.3623 83.5157 45.8735 82.7649 46.9119C82.0297 47.9503 81.3023 48.4696 80.5827 48.4696C79.738 48.4696 79.1279 48.0588 78.7525 47.2374C78.3927 46.4159 78.2128 45.1605 78.2128 43.4711C78.2128 42.8821 78.2363 42.2312 78.2832 41.5182C78.3458 40.7897 78.4162 40.0613 78.4944 39.3328C78.5726 38.5889 78.6508 37.8604 78.729 37.1474C78.8229 36.4345 78.9089 35.7835 78.9871 35.1946C79.0654 34.6056 79.1279 34.1096 79.1749 33.7066C79.2374 33.2882 79.2687 33.0092 79.2687 32.8697C79.2687 32.5752 79.1905 32.366 79.0341 32.242C78.8933 32.118 78.6978 32.056 78.4475 32.056C78.2598 32.056 78.0329 32.0715 77.767 32.1025C77.5167 32.1335 77.2664 32.18 77.0162 32.242C76.7815 32.304 76.5703 32.3892 76.3826 32.4977C76.1949 32.6062 76.0698 32.7302 76.0072 32.8697C75.9446 33.0247 75.8508 33.4664 75.7256 34.1949C75.6005 34.9233 75.4675 35.83 75.3267 36.915C75.2016 37.9999 75.0921 39.2011 74.9982 40.5185C74.9944 40.5714 74.9907 40.6242 74.987 40.6771L74.7636 41.0997C74.3569 41.8902 73.8407 42.5256 73.215 43.0061C72.6049 43.4866 71.9244 43.8353 71.1736 44.0523C71.2987 43.5563 71.3926 43.0449 71.4551 42.5179C71.5177 41.9909 71.549 41.4562 71.549 40.9137C71.549 39.4723 71.3769 38.2091 71.0328 37.1242C70.6887 36.0393 70.2428 35.1403 69.6953 34.4274C69.1478 33.6989 68.5378 33.1564 67.8651 32.7999C67.1925 32.428 66.5355 32.242 65.8941 32.242C65.3466 32.242 64.8226 32.3582 64.322 32.5907C63.8371 32.8077 63.4069 33.1409 63.0315 33.5904C62.6561 34.0244 62.351 34.5746 62.1164 35.2411C61.8974 35.892 61.7879 36.6515 61.7879 37.5194C61.7879 38.5734 61.9522 39.5498 62.2807 40.4488C62.6248 41.3477 63.0784 42.1459 63.6416 42.8434C64.2047 43.5253 64.8539 44.0988 65.5891 44.5638C66.3243 45.0288 67.0986 45.3465 67.9121 45.517C67.5992 46.8809 67.1143 47.9581 66.4573 48.7486C65.8159 49.5235 65.0025 49.911 64.017 49.911C63.2974 49.911 62.6483 49.6785 62.0695 49.2135C61.5063 48.7486 61.0292 48.1286 60.6382 47.3536C60.2471 46.5787 59.9499 45.6875 59.7465 44.68C59.5432 43.6726 59.4415 42.6341 59.4415 41.5647C59.4415 39.8133 59.6136 38.3486 59.9577 37.1707C60.3175 35.9928 60.7164 35.0473 61.1544 34.3344C61.6549 33.4974 62.2259 32.8464 62.8673 32.3815L62.5622 31.5678C62.3589 31.5678 62.0538 31.6608 61.6471 31.8467C61.2561 32.0172 60.8181 32.2807 60.3331 32.6372C59.8482 32.9937 59.3554 33.4509 58.8549 34.0089C58.3543 34.5513 57.9007 35.1946 57.494 35.9385C57.0872 36.667 56.7509 37.5039 56.485 38.4494C56.2643 39.2212 56.1352 40.0678 56.0976 40.9892L56.0392 41.0997C55.6325 41.8902 55.1163 42.5256 54.4905 43.0061C53.8805 43.4866 53.2 43.8353 52.4492 44.0523C52.5743 43.5563 52.6682 43.0449 52.7307 42.5179C52.7933 41.9909 52.8246 41.4562 52.8246 40.9137C52.8246 39.4723 52.6525 38.2091 52.3084 37.1242C51.9642 36.0393 51.5184 35.1403 50.9709 34.4274C50.4234 33.6989 49.8134 33.1564 49.1407 32.7999C48.4681 32.428 47.8111 32.242 47.1697 32.242C46.6222 32.242 46.0982 32.3582 45.5976 32.5907C45.1127 32.8077 44.6825 33.1409 44.3071 33.5904C43.9317 34.0244 43.6266 34.5746 43.392 35.2411C43.173 35.892 43.0635 36.6515 43.0635 37.5194C43.0635 38.5734 43.2277 39.5498 43.5562 40.4488C43.9004 41.3477 44.354 42.1459 44.9172 42.8434C45.4803 43.5253 46.1295 44.0988 46.8647 44.5638C47.5999 45.0288 48.3742 45.3465 49.1876 45.517C48.8748 46.8809 48.3899 47.9581 47.7329 48.7486C47.0915 49.5235 46.2781 49.911 45.2926 49.911C44.573 49.911 43.9317 49.663 43.3685 49.167C42.8054 48.6711 42.3283 47.9503 41.9372 47.0049C41.5461 46.044 41.2411 44.8738 41.0221 43.4943C40.8031 42.0994 40.6858 40.5108 40.6701 38.7284C40.983 37.7209 41.3037 36.6437 41.6322 35.4968C41.9607 34.3344 42.2814 33.1564 42.5942 31.963C42.6967 31.567 42.7975 31.171 42.8966 30.775H43.653ZM41.7051 30.775C41.7121 30.7448 41.7191 30.7146 41.726 30.6843C42.0545 29.2429 42.3361 27.848 42.5707 26.4995C42.821 25.1511 43.0166 23.8802 43.1573 22.6868C43.2981 21.4778 43.3685 20.4239 43.3685 19.5249C43.3685 19.1995 43.3294 18.9437 43.2512 18.7577C43.173 18.5717 43.0478 18.4787 42.8758 18.4787C42.7037 18.4787 42.5316 18.719 42.3596 19.1995C42.1875 19.6799 42.0154 20.3309 41.8434 21.1523C41.6869 21.9738 41.5383 22.927 41.3975 24.0119C41.2724 25.0969 41.1551 26.2516 41.0456 27.476C40.9482 28.5511 40.8694 29.6508 40.8091 30.775H37.313C37.3956 29.5641 37.5057 28.4412 37.6433 27.4062C37.9874 24.8024 38.441 22.6868 39.0042 21.0594C39.5673 19.4164 40.2165 18.223 40.9517 17.4791C41.6869 16.7196 42.4456 16.3399 43.2277 16.3399C43.7127 16.3399 44.1116 16.5336 44.4244 16.9211C44.7373 17.2931 44.8937 17.975 44.8937 18.967C44.8937 19.7419 44.8311 20.6254 44.706 21.6173C44.5808 22.6093 44.4166 23.671 44.2132 24.8024C44.0099 25.9338 43.7674 27.1118 43.4858 28.3362C43.2965 29.1491 43.1001 29.9621 42.8966 30.775H41.7051ZM41.7051 30.775H40.8091C40.8016 30.9149 40.7944 31.0551 40.7875 31.1958C40.7249 32.4667 40.6858 33.6911 40.6701 34.8691C41.0376 33.5341 41.3826 32.1694 41.7051 30.775ZM48.9003 17.9275L51.9794 8.99017L55.0584 17.9275H48.9003ZM102.267 0.697324C102.585 0.697324 102.86 0.811906 103.091 1.04107C103.323 1.27023 103.438 1.54237 103.438 1.85746V29.6149C103.438 29.93 103.323 30.2021 103.091 30.4313C102.86 30.6604 102.585 30.775 102.267 30.775H95.2854C94.5916 30.775 94.0133 30.4742 93.5508 29.8727L84.0969 17.9275V29.6149C84.0969 29.93 83.9813 30.2021 83.75 30.4313C83.5187 30.6604 83.244 30.775 82.926 30.775H74.8599C74.5418 30.775 74.2672 30.6604 74.0359 30.4313C73.8046 30.2021 73.689 29.93 73.689 29.6149V1.85746C73.689 1.54237 73.8046 1.27023 74.0359 1.04107C74.2672 0.811906 74.5418 0.697324 74.8599 0.697324H81.8852C82.5791 0.697324 83.1428 0.983779 83.5765 1.55669L93.0304 14.4901V1.85746C93.0304 1.54237 93.146 1.27023 93.3773 1.04107C93.6086 0.811906 93.8832 0.697324 94.2013 0.697324H102.267ZM44.6121 37.3334C44.6121 38.2479 44.7373 39.0926 44.9876 39.8675C45.2535 40.627 45.6054 41.3012 46.0434 41.8902C46.4814 42.4637 46.9898 42.9441 47.5686 43.3316C48.1474 43.7191 48.7653 43.9903 49.4223 44.1453C49.5005 43.7113 49.5474 43.2619 49.5631 42.7969C49.5944 42.3164 49.61 41.8282 49.61 41.3322C49.61 40.2318 49.524 39.2398 49.3519 38.3564C49.1798 37.4574 48.953 36.698 48.6714 36.078C48.3899 35.4425 48.0614 34.9543 47.6859 34.6133C47.3105 34.2724 46.9273 34.1019 46.5362 34.1019C46.0043 34.1019 45.5507 34.3886 45.1753 34.9621C44.7998 35.52 44.6121 36.3105 44.6121 37.3334ZM63.3365 37.3334C63.3365 38.2479 63.4617 39.0926 63.712 39.8675C63.9779 40.627 64.3299 41.3012 64.7679 41.8902C65.2059 42.4637 65.7142 42.9441 66.293 43.3316C66.8718 43.7191 67.4897 43.9903 68.1467 44.1453C68.2249 43.7113 68.2718 43.2619 68.2875 42.7969C68.3188 42.3164 68.3344 41.8282 68.3344 41.3322C68.3344 40.2318 68.2484 39.2398 68.0763 38.3564C67.9042 37.4574 67.6774 36.698 67.3958 36.078C67.1143 35.4425 66.7858 34.9543 66.4103 34.6133C66.0349 34.2724 65.6517 34.1019 65.2606 34.1019C64.7287 34.1019 64.2751 34.3886 63.8997 34.9621C63.5243 35.52 63.3365 36.3105 63.3365 37.3334ZM105.689 40.1465C105.689 39.4956 105.596 38.7826 105.408 38.0077C105.22 37.2172 104.946 36.4887 104.587 35.8223C104.227 35.1558 103.773 34.5978 103.226 34.1484C102.678 33.6989 102.052 33.4742 101.349 33.4742C100.801 33.4742 100.269 33.6059 99.7529 33.8694C99.2367 34.1174 98.7753 34.5436 98.3686 35.1481C97.9775 35.737 97.6568 36.5275 97.4065 37.5194C97.1562 38.5114 97.0311 39.7358 97.0311 41.1927C97.0311 42.4637 97.1562 43.5563 97.4065 44.4708C97.6568 45.3852 97.9853 46.1447 98.392 46.7492C98.8144 47.3381 99.2837 47.7721 99.7999 48.0511C100.316 48.3301 100.848 48.4696 101.395 48.4696C102.021 48.4696 102.592 48.3456 103.108 48.0976C103.625 47.8496 104.07 47.4389 104.446 46.8654C104.821 46.2919 105.111 45.5402 105.314 44.6103C105.533 43.6803 105.658 42.5411 105.689 41.1927V40.1465ZM140.182 35.613C140.182 34.9931 140.01 34.5048 139.666 34.1484C139.337 33.7919 138.93 33.6136 138.445 33.6136C138.039 33.6136 137.608 33.7609 137.155 34.0554C136.701 34.3344 136.287 34.7916 135.911 35.427C135.536 36.047 135.223 36.8452 134.973 37.8217C134.722 38.7981 134.597 39.9838 134.597 41.3787V41.9134C135.129 41.6344 135.716 41.2702 136.357 40.8207C137.014 40.3558 137.624 39.8443 138.187 39.2863C138.75 38.7284 139.22 38.1394 139.595 37.5194C139.986 36.884 140.182 36.2485 140.182 35.613Z" fill="url(#paint0_linear)"/>
                <defs>
                <linearGradient id="paint0_linear" x1="0" y1="0" x2="147.207" y2="83.6715" gradientUnits="userSpaceOnUse">
                <stop stop-color="#55FF9D"/>
                <stop offset="1" stop-color="#D67FFF"/>
                </linearGradient>
                </defs>
            </svg>
